<?xml version="1.0" encoding="UTF-8" standalone="no"?>
<!-- Created with Inkscape (http://www.inkscape.org/) -->

<svg
   width="48"
   height="48"
   viewBox="0 0 48 48"
   version="1.1"
   id="svg1"
   xmlns:inkscape="http://www.inkscape.org/namespaces/inkscape"
   xmlns:sodipodi="http://sodipodi.sourceforge.net/DTD/sodipodi-0.dtd"
   xmlns="http://www.w3.org/2000/svg"
   xmlns:svg="http://www.w3.org/2000/svg">
  <sodipodi:namedview
     id="namedview1"
     pagecolor="#505050"
     bordercolor="#eeeeee"
     borderopacity="1"
     inkscape:showpageshadow="0"
     inkscape:pageopacity="0"
     inkscape:pagecheckerboard="0"
     inkscape:deskcolor="#505050"
     inkscape:document-units="px" />
  <defs
     id="defs1" />
  <g
     inkscape:label="Layer 1"
     inkscape:groupmode="layer"
     id="layer1">
    <g
       fill="#50b848"
       id="g6"
       style="fill:#00ff19;fill-opacity:1"
       transform="matrix(0.36380044,0,0,0.34381358,-19.485493,-29.408476)">
      <path
         d="m 61.4,225.5 c -4.25,-1.3 -7.65,-5.3 -8.15,-9.65 C 53.1,214.4 53,186.5 53.1,153.75 l 0.15,-59.5 1.15,-1.9 c 1.25,-2.15 3.1,-3.95 5.35,-5.25 1.4,-0.8 5.45,-0.85 59.5,-0.85 h 58 l 2,1.1 c 2.5,1.3 4.35,3.3 5.55,5.9 0.9,1.9 0.95,4.45 0.95,62.75 v 60.75 l -1.15,2.3 c -1.4,2.85 -2.9,4.55 -5.15,5.8 -1.6,0.85 -4.35,0.9 -59.2,1 -31.6,0.05 -58.1,-0.1 -58.85,-0.35 z m 34.05,-24.85 c 0.9,-0.8 1.25,-2.4 2.55,-11.65 1.8,-12.5 3.9,-24.95 4.4,-25.8 0.25,-0.4 3.45,0.25 11.35,2.3 6.05,1.55 11.65,3 12.45,3.2 1.35,0.35 1.4,0.45 1.1,2.45 -1.45,9.95 -3.2,28.15 -2.75,28.6 0.7,0.7 26.6,0.65 31.9,-0.1 2.25,-0.3 4.4,-0.8 4.65,-1.05 0.5,-0.5 0.35,-1.4 -2.6,-18.35 -0.9,-5.05 -4,-22.75 -7.25,-41.5 -3.7,-21.25 -4.7,-26.4 -5.15,-26.85 -1.55,-1.55 -8.2,-1.8 -10.45,-0.4 -1.9,1.15 -1.6,-0.5 -3.65,18.25 -0.6,4.95 -1.2,9.1 -1.4,9.3 -0.4,0.35 -23.2,3 -23.5,2.75 -0.55,-0.6 5.75,-22.4 6.7,-23.15 0.55,-0.4 0.7,-1.25 0.6,-3 l -0.15,-2.4 -15.5,-1.35 C 90.2,111.2 82.1,110.55 80.7,110.55 l -2.6,-0.05 -0.2,1.9 c -0.4,3.3 0.5,35.05 1.35,45.85 0.9,11.85 2.35,25.4 3.75,35 1.2,8.1 1.3,8.25 7.25,8.25 3.2,0 4.4,-0.2 5.2,-0.85 z"
         id="path6"
         style="fill:#00ff19;fill-opacity:1" />
    </g>
  </g>
</svg>
